# xmcd
#
# Track frame offsets: 
#        150
#        12217
#        26040
#        42547
#        56540
#        71780
#        87077
#        103652
#        116375
#        130267
#
# Disc length: 1916 seconds
#
# Revision: 1
# Processed by: cddbd v1.5.2PL0 Copyright (c) Steve Scherf et al.
# Submitted via: ExactAudioCopy v0.99pb5
#
DISCID=83077a0a
DTITLE=The Country Dance Kings - Country Line Dance Jubilee
DYEAR=1993
DGENRE=Country
TTITLE0=Hillbilly Rock
TTITLE1=Boot Scootin' Boogie
TTITLE2=I Feel Lucky
TTITLE3=Honky-Tonk Blues
TTITLE4=Can't Keep A Good Man Down
TTITLE5=Achy Breaky Heart
TTITLE6=No One Else On Earth
TTITLE7=Dumas Walker
TTITLE8=Guitars, Cadilacs
TTITLE9=Super Love
EXTD=YEAR: 1993 ID3G: 2
EXTT0=
EXTT1=
EXTT2=
EXTT3=
EXTT4=
EXTT5=
EXTT6=
EXTT7=
EXTT8=
EXTT9=
PLAYORDER=
